<?xml version="1.0" encoding="UTF-8"?>
<!DOCTYPE svg PUBLIC "-//W3C//DTD SVG 1.1//EN" "http://www.w3.org/Graphics/SVG/1.1/DTD/svg11.dtd">
<svg xmlns="http://www.w3.org/2000/svg" xmlns:xlink="http://www.w3.org/1999/xlink" version="1.1" width="121px" height="81px" viewBox="-0.5 -0.5 121 81"><defs/><g><path d="M 0 0 L 120 0 L 120 70 L 70.4 70 L 60 80 L 50.4 70 L 0 70 Z" fill="none" stroke="none" pointer-events="all"/><path d="M 1.64 0.97 L 118.09 1.9 L 121.11 69.67 L 70.52 68.86 L 60.18 81.85 L 52.08 70.09 L 1.98 69.43 L -0.81 -0.58" fill="rgb(255, 255, 255)" stroke="none" pointer-events="all"/><path d="M 0 0 M 0 0 C 44.68 0.82 91.41 1.51 120 0 M 0 0 C 26.31 -0.01 52.41 1.68 120 0 M 120 0 C 119.63 13.43 122.3 29.58 120 70 M 120 0 C 119.93 14.51 119.7 31.74 120 70 M 120 70 C 106.81 70.13 91.26 68.79 70.4 70 M 120 70 C 102.06 69.93 83.96 70.39 70.4 70 M 70.4 70 C 67.07 71.39 64.83 74.62 60 80 M 70.4 70 C 67.2 73.99 63.27 76.52 60 80 M 60 80 C 56.25 77.32 54.72 75.28 50.4 70 M 60 80 C 56.77 76.62 53.11 73.58 50.4 70 M 50.4 70 C 33.9 67.79 14.62 69.7 0 70 M 50.4 70 C 37.09 69.55 23.25 69.61 0 70 M 0 70 C 0.36 50.65 -2.2 34.66 0 0 M 0 70 C 0.7 48.4 1.35 25.64 0 0" fill="none" stroke="rgb(0, 0, 0)" stroke-linejoin="round" stroke-linecap="round" stroke-miterlimit="10" pointer-events="all"/></g></svg>