<?xml version="1.0" encoding="UTF-8"?>
<!DOCTYPE svg PUBLIC "-//W3C//DTD SVG 1.1//EN" "http://www.w3.org/Graphics/SVG/1.1/DTD/svg11.dtd">
<svg xmlns="http://www.w3.org/2000/svg" xmlns:xlink="http://www.w3.org/1999/xlink" version="1.1" width="42" height="95" viewBox="-0.5 -0.5 42 95"><defs><filter id="dropShadow"><feGaussianBlur in="SourceAlpha" stdDeviation="1.7" result="blur"/><feOffset in="blur" dx="3" dy="3" result="offsetBlur"/><feFlood flood-color="#3D4574" flood-opacity="0.4" result="offsetColor"/><feComposite in="offsetColor" in2="offsetBlur" operator="in" result="offsetBlur"/><feBlend in="SourceGraphic" in2="offsetBlur"/></filter></defs><g filter="url(#dropShadow)"><path d="M 11 82 L 11 2" fill="none" stroke="none" pointer-events="stroke" transform="translate(2,3)" opacity="0.25"/><path d="M 11 82 L 11 2" fill="none" stroke="none" pointer-events="stroke"/><path d="M 11 82 M 11 82 C 10.93 58.79 10.66 35.37 11 2 M 11 82 C 10.09 62.4 11.28 41.9 11 2" fill="none" stroke="#000000" stroke-width="3" stroke-linejoin="round" stroke-linecap="round" stroke-miterlimit="10" pointer-events="stroke" transform="translate(2,3)" opacity="0.25"/><path d="M 11 82 M 11 82 C 10.93 58.79 10.66 35.37 11 2 M 11 82 C 10.09 62.4 11.28 41.9 11 2" fill="none" stroke="#5b7d47" stroke-width="3" stroke-linejoin="round" stroke-linecap="round" stroke-miterlimit="10" pointer-events="stroke"/><path d="M 1 12 L 11 0.61" fill="none" stroke="none" pointer-events="stroke" transform="translate(2,3)" opacity="0.25"/><path d="M 1 12 L 11 0.61" fill="none" stroke="none" pointer-events="stroke"/><path d="M 1 12 M 1 12 C 5.05 9.85 5.9 6.37 11 0.61 M 1 12 C 4.45 8 8.61 3.31 11 0.61" fill="none" stroke="#000000" stroke-width="3" stroke-linejoin="round" stroke-linecap="round" stroke-miterlimit="10" pointer-events="stroke" transform="translate(2,3)" opacity="0.25"/><path d="M 1 12 M 1 12 C 5.05 9.85 5.9 6.37 11 0.61 M 1 12 C 4.45 8 8.61 3.31 11 0.61" fill="none" stroke="#5b7d47" stroke-width="3" stroke-linejoin="round" stroke-linecap="round" stroke-miterlimit="10" pointer-events="stroke"/><path d="M 21 0.61 L 21 80.61" fill="none" stroke="none" pointer-events="stroke" transform="translate(2,3)" opacity="0.25"/><path d="M 21 0.61 L 21 80.61" fill="none" stroke="none" pointer-events="stroke"/><path d="M 21 0.61 M 21 0.61 C 19.93 21.58 21.77 44.53 21 80.61 M 21 0.61 C 20.49 16.36 21.56 34.23 21 80.61" fill="none" stroke="#000000" stroke-width="3" stroke-linejoin="round" stroke-linecap="round" stroke-miterlimit="10" pointer-events="stroke" transform="translate(2,3)" opacity="0.25"/><path d="M 21 0.61 M 21 0.61 C 19.93 21.58 21.77 44.53 21 80.61 M 21 0.61 C 20.49 16.36 21.56 34.23 21 80.61" fill="none" stroke="#5b7d47" stroke-width="3" stroke-linejoin="round" stroke-linecap="round" stroke-miterlimit="10" pointer-events="stroke"/><path d="M 31 72 L 21 82" fill="none" stroke="none" pointer-events="stroke" transform="translate(2,3)" opacity="0.25"/><path d="M 31 72 L 21 82" fill="none" stroke="none" pointer-events="stroke"/><path d="M 31 72 M 31 72 C 28.84 75.78 26.48 78.95 21 82 M 31 72 C 28.43 74.39 26.1 77.57 21 82" fill="none" stroke="#000000" stroke-width="3" stroke-linejoin="round" stroke-linecap="round" stroke-miterlimit="10" pointer-events="stroke" transform="translate(2,3)" opacity="0.25"/><path d="M 31 72 M 31 72 C 28.84 75.78 26.48 78.95 21 82 M 31 72 C 28.43 74.39 26.1 77.57 21 82" fill="none" stroke="#5b7d47" stroke-width="3" stroke-linejoin="round" stroke-linecap="round" stroke-miterlimit="10" pointer-events="stroke"/></g></svg>